<svg width="182" height="26" fill="none" xmlns="http://www.w3.org/2000/svg"><path fill-rule="evenodd" clip-rule="evenodd" d="M107.074 17.686c-3.097 0-5.248-2.096-5.248-5.378V4.295h2.169v8.05c0 2.059 1.224 3.245 3.079 3.245 1.837 0 3.061-1.186 3.061-3.245v-8.05h2.169v8.013c0 3.282-2.169 5.378-5.23 5.378m7.103-9.496h2.04v1.262c.557-.928 1.614-1.447 2.82-1.447 2.151 0 3.542 1.52 3.542 3.876v5.583h-2.04v-5.25c0-1.464-.742-2.354-1.93-2.354-1.353 0-2.392 1.057-2.392 3.042v4.562h-2.04V8.19Zm10.275 9.273h2.04V8.19h-2.04v9.273Zm1.019-11.295a1.381 1.381 0 0 1-1.372-1.372c0-.742.631-1.354 1.372-1.354a1.35 1.35 0 0 1 1.355 1.354c0 .76-.594 1.372-1.355 1.372Zm1.725 2.022h2.263l2.819 6.492 2.837-6.492h2.282l-4.21 9.274h-1.799l-4.192-9.274Zm12.092 3.69h5.119c-.315-1.502-1.373-2.169-2.503-2.169-1.28 0-2.337.741-2.616 2.17m2.653 5.768c-2.764 0-4.748-2.04-4.748-4.823 0-2.744 1.91-4.822 4.766-4.822 2.838 0 4.822 2.17 4.637 5.324h-7.381c.074 1.41 1.149 2.522 2.8 2.522 1.019 0 1.91-.408 2.337-1.298h2.133c-.52 1.743-2.189 3.097-4.544 3.097m6.008-9.459h2.04v1.65c.353-1.056 1.391-1.743 2.448-1.743.261 0 .52.02.798.075v2.096a3.162 3.162 0 0 0-1.02-.168c-1.169 0-2.226.984-2.226 2.838v4.525h-2.04V8.19Zm9.403 9.46c-2.169 0-3.857-1.15-3.968-3.005h2.114c.166 1.001 1.001 1.372 1.91 1.372.89 0 1.502-.352 1.502-.983 0-.63-.408-.983-1.372-1.224l-1.522-.408c-1.594-.408-2.374-1.447-2.374-2.8 0-1.559 1.373-2.598 3.451-2.598 2.003 0 3.393 1.113 3.542 2.782h-2.04c-.186-.778-.798-1.15-1.521-1.15-.779 0-1.354.353-1.354.947s.464.908 1.243 1.113l1.558.408c1.669.426 2.466 1.391 2.466 2.8 0 1.8-1.557 2.745-3.635 2.745m4.951-.186h2.041V8.19h-2.041v9.273Zm1.02-11.295a1.381 1.381 0 0 1-1.372-1.372c0-.742.631-1.354 1.372-1.354.76 0 1.354.612 1.354 1.354 0 .76-.594 1.372-1.354 1.372Zm7.048 11.388c-1.781 0-3.172-.983-3.172-3.078v-4.47h-1.928V8.19h1.928V5.612h2.041V8.19h2.652v1.818h-2.652v4.136c0 1.15.5 1.576 1.557 1.576.39 0 .798-.074 1.095-.186v1.818c-.408.13-.89.204-1.521.204" fill="#1A71FF"/><path fill-rule="evenodd" clip-rule="evenodd" d="m173.802 21.34 1.985-4.377L171.8 8.19h2.243l2.856 6.566 2.838-6.566H182l-5.953 13.15h-2.245Z" fill="#1A71FF"/><path fill-rule="evenodd" clip-rule="evenodd" d="M39.926 4.815h2.183v10.602h3.792v2.09h-5.975V4.815Z" fill="#0F146D"/><path d="M15.836 25.47c-.221 0-.438-.058-.63-.168-1.671-.958-14.063-8.666-14.534-8.922A1.115 1.115 0 0 1 0 15.493V4.684c.003-.4.21-.772.552-.987l.078-.045C1.841 2.914 5.85.486 6.49.132A.966.966 0 0 1 6.97 0a.897.897 0 0 1 .45.117s5.638 3.625 6.477 3.952a4.54 4.54 0 0 0 1.94.402 4.355 4.355 0 0 0 2.154-.522c.835-.44 6.206-3.797 6.258-3.832A.986.986 0 0 1 24.703 0c.17.002.336.048.483.133.724.401 5.703 3.425 5.915 3.56.352.208.568.585.565.991v10.81a1.104 1.104 0 0 1-.653.886c-.474.26-12.856 7.96-14.534 8.922-.195.112-.417.17-.643.168Z" fill="url(#a)"/><path d="M15.833 25.47h.062c.22 0 .436-.058.627-.168 1.672-.957 14.009-8.671 14.493-8.93.36-.16.607-.499.65-.889V4.656a1.128 1.128 0 0 0-.123-.526l-15.71 8.606V25.47Z" fill="#ED2497" style="mix-blend-mode:multiply"/><path d="M0 15.425c.05.396.306.736.675.894.472.257 12.91 8.023 14.588 8.988.175.098.37.154.57.163V12.663L.073 4.13c-.05.13-.074.267-.073.405v10.89Z" fill="#EC8000" style="mix-blend-mode:multiply" opacity=".41"/><path fill-rule="evenodd" clip-rule="evenodd" d="M51.38 9.857c-1.66 0-2.78 1.306-2.78 2.986 0 1.68 1.12 2.985 2.78 2.985 1.66 0 2.78-1.306 2.78-2.985 0-1.68-1.12-2.986-2.78-2.986m-.373-1.865c1.343 0 2.463.69 2.985 1.436v-1.25h2.053v9.33h-2.053v-1.25c-.522.745-1.642 1.436-2.985 1.436-2.556 0-4.496-2.184-4.496-4.851 0-2.669 1.94-4.851 4.496-4.851m6.637 7.892 4.887-5.84h-4.813V8.177h7.463V9.82l-4.87 5.821h4.981v1.866h-7.648v-1.623Zm13.24-6.027c-1.66 0-2.78 1.306-2.78 2.986 0 1.68 1.12 2.985 2.78 2.985 1.66 0 2.78-1.306 2.78-2.985 0-1.68-1.12-2.986-2.78-2.986m-.373-1.865c1.343 0 2.463.69 2.985 1.436v-1.25h2.053v9.33h-2.053v-1.25c-.522.745-1.642 1.436-2.985 1.436-2.556 0-4.496-2.184-4.496-4.851 0-2.669 1.94-4.851 4.496-4.851M81.78 9.857c-1.66 0-2.78 1.306-2.78 2.986 0 1.679 1.12 2.985 2.78 2.985 1.661 0 2.78-1.306 2.78-2.986 0-1.679-1.119-2.985-2.78-2.985m-.372-1.865c1.343 0 2.462.69 2.985 1.436V4.069h2.052v13.438h-2.052v-1.25c-.523.746-1.642 1.436-2.985 1.436-2.556 0-4.497-2.183-4.497-4.85 0-2.669 1.94-4.851 4.497-4.851m11.279 1.865c-1.66 0-2.78 1.306-2.78 2.986 0 1.68 1.12 2.985 2.78 2.985 1.661 0 2.78-1.306 2.78-2.985 0-1.68-1.119-2.986-2.78-2.986m-.373-1.865c1.343 0 2.463.69 2.986 1.436v-1.25h2.052v9.33H95.3v-1.25c-.522.745-1.642 1.436-2.985 1.436-2.555 0-4.496-2.184-4.496-4.851 0-2.669 1.94-4.851 4.496-4.851" fill="#0F146D"/><defs><linearGradient id="a" x1="0" y1="25.473" x2="31.672" y2="25.473" gradientUnits="userSpaceOnUse"><stop stop-color="#FF8900"/><stop offset=".29" stop-color="#EA6D00"/><stop offset=".32" stop-color="#EB680B"/><stop offset=".57" stop-color="#F33C72"/><stop offset=".78" stop-color="#FA1CBE"/><stop offset=".93" stop-color="#FE08ED"/><stop offset="1" stop-color="#F0F"/></linearGradient></defs></svg>